<?xml version="1.0" encoding="UTF-8"?>
<svg width="24px" height="24px" viewBox="0 0 24 24" version="1.1" xmlns="http://www.w3.org/2000/svg" xmlns:xlink="http://www.w3.org/1999/xlink">
    <!-- Generator: Sketch 59.1 (86144) - https://sketch.com -->
    <title>icons/ico_amber_warning</title>
    <desc>Created with Sketch.</desc>
    <g id="icons/ico_amber_warning" stroke="none" stroke-width="1" fill="none" fill-rule="evenodd">
        <g id="Icon-/-warning-sign" transform="translate(3.000000, 4.000000)" fill="#D2A000" fill-rule="nonzero">
            <path d="M9,0.125 C9.41599001,0.125 9.76452217,0.35 9.95565272,0.6875 L9.95565272,0.6875 L9.96689569,0.67625 L17.8369769,14.17625 L17.8257339,14.1875 C17.9269207,14.35625 17.9943785,14.53625 17.9943785,14.75 C17.9943785,15.36875 17.4884447,15.875 16.8700812,15.875 L16.8700812,15.875 L1.1299188,15.875 C0.511555278,15.875 0.00562148657,15.36875 0.00562148657,14.75 C0.00562148657,14.53625 0.0730793254,14.35625 0.174266084,14.1875 L0.174266084,14.1875 L0.163023111,14.17625 L8.03310431,0.67625 L8.04434728,0.6875 C8.2467208,0.35 8.58400999,0.125 9,0.125 Z M10.1242973,11.36375 L7.87570269,11.36375 L7.87570269,13.61375 L10.1242973,13.61375 L10.1242973,11.36375 Z M10.1242973,4.61375 L7.87570269,4.61375 L7.87570269,10.23875 L10.1242973,10.23875 L10.1242973,4.61375 Z" id="Combined-Shape"></path>
        </g>
    </g>
</svg>