<?xml version="1.0" encoding="UTF-8"?>
<svg width="24px" height="24px" viewBox="0 0 24 24" version="1.1" xmlns="http://www.w3.org/2000/svg" xmlns:xlink="http://www.w3.org/1999/xlink">
    <!-- Generator: Sketch 59.1 (86144) - https://sketch.com -->
    <title>icons/icons/IcoCollectionAmberQuestionRound</title>
    <desc>Created with Sketch.</desc>
    <g id="icons/icons/IcoCollectionAmberQuestionRound" stroke="none" stroke-width="1" fill="none" fill-rule="evenodd">
        <g id="Group-13" transform="translate(1.000000, 1.000000)">
            <rect id="Rectangle" fill="#FFE8B2" fill-rule="nonzero" x="2.44444444" y="0" width="17.1111111" height="1.22222222" rx="0.611111111"></rect>
            <rect id="Rectangle" fill="#FBD884" fill-rule="nonzero" x="1.22222222" y="2.44444444" width="19.5555556" height="1.22222222" rx="0.611111111"></rect>
            <rect id="Rectangle" fill="#EDB501" fill-rule="nonzero" x="0" y="4.88888889" width="22" height="17.1111111" rx="1.22222222"></rect>
            <path d="M8.55555556,11.4936852 C8.6046627,10.1623064 9.45039683,9.16666667 11.0327381,9.16666667 C12.4732143,9.16666667 13.4444444,10.0754774 13.4444444,11.3316043 C13.4444444,12.2230492 13.0188492,12.8540069 12.2986111,13.3113066 C11.5947421,13.7512404 11.3928571,14.0580364 11.3928571,14.6426853 L11.3928571,14.9900015 L10.2633929,14.9900015 L10.2579365,14.5500677 C10.2306548,13.7165088 10.5634921,13.1955345 11.3110119,12.720869 C11.9712302,12.298301 12.2058532,11.9683506 12.2058532,11.3837017 C12.2058532,10.7469553 11.7202381,10.2838671 10.9727183,10.2838671 C10.2197421,10.2838671 9.73412698,10.7527439 9.68501984,11.4936852 L8.55555556,11.4936852 Z M10.8963294,17.7222222 C10.3943452,17.7222222 10.0505952,17.3691174 10.0505952,16.8423545 C10.0505952,16.3040144 10.3943452,15.9509096 10.8963294,15.9509096 C11.3983135,15.9509096 11.7366071,16.3040144 11.7366071,16.8423545 C11.7366071,17.3691174 11.3983135,17.7222222 10.8963294,17.7222222 Z" id="?" stroke="#FFFFFF" stroke-width="0.5" fill="#FFFFFF"></path>
        </g>
    </g>
</svg>