<?xml version="1.0" encoding="UTF-8"?>
<svg width="24px" height="24px" viewBox="0 0 24 24" version="1.1" xmlns="http://www.w3.org/2000/svg" xmlns:xlink="http://www.w3.org/1999/xlink">
    <!-- Generator: Sketch 59.1 (86144) - https://sketch.com -->
    <title>icons/IcoDatabase</title>
    <desc>Created with Sketch.</desc>
    <g id="icons/IcoDatabase" stroke="none" stroke-width="1" fill="none" fill-rule="evenodd">
        <path d="M12.5,19.6822011 C18.2304213,19.6822011 20.1219618,17.7245522 21,16.9987837 L21,19.6822011 C21,20.2783681 20.6200087,20.8313346 19.860026,21.3411006 C19.1000434,21.8508665 18.0670573,22.2547913 16.7610677,22.5528748 C15.4550781,22.8509583 14.0347222,23 12.5,23 C10.9652778,23 9.54492188,22.8509583 8.23893229,22.5528748 C6.93294271,22.2547913 5.8999566,21.8508665 5.13997396,21.3411006 C4.37999132,20.8313346 4,20.2783681 4,19.6822011 L4,16.9987837 C4.87803819,17.7245522 6.76957872,19.6822011 12.5,19.6822011 Z M12.5,11.1045066 C14.2486979,11.1045066 15.8830295,10.9187445 17.4029948,10.5472201 C18.9229601,10.1756958 20.1219618,9.20975997 21,8.48399147 L21,11.1045066 C21,11.7006736 20.6200087,12.2536401 19.860026,12.7634061 C19.1000434,13.273172 18.0670573,13.6770968 16.7610677,13.9751803 C15.4550781,14.2732638 14.0347222,14.4223055 12.5,14.4223055 C10.9652778,14.4223055 9.54492188,14.2732638 8.23893229,13.9751803 C6.93294271,13.6770968 5.8999566,13.273172 5.13997396,12.7634061 C4.37999132,12.2536401 4,11.7006736 4,11.1045066 L4,8.48399147 C4.87803819,9.20975997 6.07703993,10.1756958 7.59700521,10.5472201 C9.11697049,10.9187445 10.7513021,11.1045066 12.5,11.1045066 Z M12.5,15.152394 C14.2486979,15.152394 15.8830295,14.9356715 17.4029948,14.5022264 C18.9229601,14.0687814 20.1219618,13.4286939 21,12.5819639 L21,15.372748 C21,16.0682762 20.6200087,16.4930498 19.860026,17.0877767 C19.1000434,17.6825037 18.0670573,18.1537492 16.7610677,18.5015133 C15.4550781,18.8492773 14.0347222,19.0231594 12.5,19.0231594 C10.9652778,19.0231594 9.54492188,18.8492773 8.23893229,18.5015133 C6.93294271,18.1537492 5.8999566,17.6825037 5.13997396,17.0877767 C4.37999132,16.4930498 4,16.0682762 4,15.372748 L4,12.5819639 C4.87803819,13.4286939 6.07703993,14.0687814 7.59700521,14.5022264 C9.11697049,14.9356715 10.7513021,15.152394 12.5,15.152394 Z M12.5,2 C14.0347222,2 15.4550781,2.14880887 16.7610677,2.4464266 C18.0670573,2.74404434 19.1000434,3.14733794 19.860026,3.6563074 C20.6200087,4.16527686 21,4.71737933 21,5.3126148 L21,6.9689222 C21,7.56415767 20.6200087,8.11626014 19.860026,8.6252296 C19.1000434,9.13419906 16.9870911,10.1739291 12.5,10.281537 C8.01290894,10.3891449 5.8999566,9.13419906 5.13997396,8.6252296 C4.37999132,8.11626014 4,7.56415767 4,6.9689222 L4,5.3126148 C4,4.71737933 4.37999132,4.16527686 5.13997396,3.6563074 C5.8999566,3.14733794 6.93294271,2.74404434 8.23893229,2.4464266 C9.54492188,2.14880887 10.9652778,2 12.5,2 Z" id="ico-database" fill="#3E4144"></path>
    </g>
</svg>