<?xml version="1.0" encoding="UTF-8"?>
<svg width="24px" height="24px" viewBox="0 0 24 24" version="1.1" xmlns="http://www.w3.org/2000/svg" xmlns:xlink="http://www.w3.org/1999/xlink">
    <!-- Generator: Sketch 59.1 (86144) - https://sketch.com -->
    <title>icons/icoFileCheckGrey</title>
    <desc>Created with Sketch.</desc>
    <g id="icons/icoFileCheckGrey" stroke="none" stroke-width="1" fill="none" fill-rule="evenodd">
        <g id="Group-3" transform="translate(6.000000, 4.000000)">
            <g id="Group-2">
                <path d="M12.3017241,2.53965781 L9.91848572,0.25 L0.445217391,0.25 C0.337401803,0.25 0.25,0.337401803 0.25,0.445217391 L0.25,15.5547826 C0.25,15.6625982 0.337401803,15.75 0.445217391,15.75 L12.1065067,15.75 C12.2143223,15.75 12.3017241,15.6625982 12.3017241,15.5547826 L12.3017241,2.53965781 Z" id="Rectangle" stroke="#65656C" stroke-width="0.5" fill="#E1DDDD" fill-rule="nonzero"></path>
                <path d="M5.36841546,11.474376 C5.24764598,11.6018747 5.04906111,11.6018747 4.92829163,11.474376 L1.84057711,8.21790268 C1.71980763,8.09106123 1.71980763,7.88075417 1.84057711,7.75325552 L2.71522205,6.82856168 C2.83599153,6.70040582 3.03395387,6.70040582 3.15534587,6.82856168 L4.92891416,8.70029449 C5.04968364,8.82713593 5.2482685,8.82713593 5.36903798,8.70029449 L9.49574354,4.34562399 C9.61713554,4.21812534 9.81572041,4.21812534 9.93586737,4.34562399 L10.8098898,5.2683462 C10.9300367,5.39584486 10.9300367,5.6054947 10.8098898,5.73299336 L5.36841546,11.474376 L5.36841546,11.474376 Z" id="Path" fill="#65656C"></path>
                <polygon id="Path-4" fill="#65656C" fill-rule="nonzero" points="9.81756592 0 9.81756592 2.6572876 12.4176331 2.6572876"></polygon>
            </g>
        </g>
    </g>
</svg>