<?xml version="1.0" encoding="UTF-8"?>
<svg width="24px" height="24px" viewBox="0 0 24 24" version="1.1" xmlns="http://www.w3.org/2000/svg" xmlns:xlink="http://www.w3.org/1999/xlink">
    <!-- Generator: Sketch 59.1 (86144) - https://sketch.com -->
    <title>icons/icoFileRemoveGrey</title>
    <desc>Created with Sketch.</desc>
    <g id="icons/icoFileRemoveGrey" stroke="none" stroke-width="1" fill="none" fill-rule="evenodd">
        <g id="Group" transform="translate(5.000000, 4.000000)">
            <g id="Group-2" transform="translate(1.000000, 0.000000)" fill-rule="nonzero">
                <path d="M12.3017241,2.53965781 L9.91848572,0.25 L0.445217391,0.25 C0.337401803,0.25 0.25,0.337401803 0.25,0.445217391 L0.25,15.5547826 C0.25,15.6625982 0.337401803,15.75 0.445217391,15.75 L12.1065067,15.75 C12.2143223,15.75 12.3017241,15.6625982 12.3017241,15.5547826 L12.3017241,2.53965781 Z" id="Rectangle" stroke="#65656C" stroke-width="0.5" fill="#E1DDDD"></path>
                <polygon id="Path-4" fill="#65656C" points="9.81756592 0 9.81756592 2.6572876 12.4176331 2.6572876"></polygon>
            </g>
            <path d="M7.99098885,7.09398443 L11.2335995,7.14083575 C11.693294,7.14747772 12.0643404,7.5185241 12.0709824,7.97821857 C12.0773817,8.42111911 11.7235276,8.78534861 11.280627,8.79174795 C11.2729028,8.79185956 11.2651773,8.79185956 11.257453,8.79174795 L8.01484238,8.74489663 L8.01484238,8.74489663 L8.06407909,12.1525895 C8.07130323,12.6525747 7.6718414,13.0637492 7.17185614,13.0709733 C7.1631363,13.0710993 7.15441511,13.0710993 7.14569528,13.0709733 C6.62675153,13.0634753 6.20788155,12.6446053 6.20038349,12.1256616 L6.15114677,8.71796875 L6.15114677,8.71796875 L2.90853612,8.67111743 C2.44884165,8.66447547 2.07779524,8.29342908 2.07115326,7.83373461 C2.06475392,7.39083408 2.41860806,7.02660457 2.86150859,7.02020523 C2.86923286,7.02009363 2.87695833,7.02009363 2.88468259,7.02020523 L6.12729325,7.06705656 L6.12729325,7.06705656 L6.08282724,3.98954617 C6.0756031,3.4895609 6.47506493,3.07838644 6.97505019,3.0711623 C6.98377003,3.07103631 6.99249122,3.07103631 7.00121105,3.0711623 C7.5201548,3.07866034 7.93902478,3.49753029 7.94652284,4.01647404 L7.99098885,7.09398443 L7.99098885,7.09398443 Z" id="+" fill="#65656C" transform="translate(7.071068, 8.071068) rotate(45.000000) translate(-7.071068, -8.071068) "></path>
        </g>
    </g>
</svg>