<?xml version="1.0" encoding="UTF-8"?>
<svg width="22px" height="24px" viewBox="0 0 22 24" version="1.1" xmlns="http://www.w3.org/2000/svg" xmlns:xlink="http://www.w3.org/1999/xlink">
    <!-- Generator: Sketch 59.1 (86144) - https://sketch.com -->
    <title>icons/icoFileAddGrey</title>
    <desc>Created with Sketch.</desc>
    <g id="icons/icoFileAddGrey" stroke="none" stroke-width="1" fill="none" fill-rule="evenodd">
        <g id="Group-2" transform="translate(5.000000, 4.000000)" fill-rule="nonzero">
            <path d="M12.3017241,2.53965781 L9.91848572,0.25 L0.445217391,0.25 C0.337401803,0.25 0.25,0.337401803 0.25,0.445217391 L0.25,15.5547826 C0.25,15.6625982 0.337401803,15.75 0.445217391,15.75 L12.1065067,15.75 C12.2143223,15.75 12.3017241,15.6625982 12.3017241,15.5547826 L12.3017241,2.53965781 Z" id="Rectangle" stroke="#65656C" stroke-width="0.5" fill="#E1DDDD"></path>
            <polygon id="Path-4" fill="#65656C" points="9.81756592 0 9.81756592 2.6572876 12.4176331 2.6572876"></polygon>
        </g>
        <path d="M11.8385861,10.8055221 L14.7462785,10.8055221 C15.1565767,10.8055221 15.489189,11.1381345 15.489189,11.5484326 C15.489189,11.9554497 15.1592365,12.2854022 14.7522194,12.2854022 C14.7502471,12.2854022 14.7482747,12.2853943 14.7463025,12.2853785 L11.8385861,12.2620325 L11.8385861,12.2620325 L11.8385861,15.3865669 C11.8385861,15.8700732 11.4466268,16.2620325 10.9631205,16.2620325 C10.4796142,16.2620325 10.0876549,15.8700732 10.0876549,15.3865669 L10.0876549,12.2620325 L10.0876549,12.2620325 L7.2428857,12.2852738 C6.83593953,12.2885985 6.50334928,11.9613987 6.50002459,11.5544525 C6.5000082,11.5524459 6.5,11.5504393 6.5,11.5484326 C6.5,11.1381345 6.83261236,10.8055221 7.24291049,10.8055221 L10.0876549,10.8055221 L10.0876549,10.8055221 L10.0876549,8.11473152 C10.0876549,7.63715349 10.4748084,7.25 10.9523864,7.25 C11.4308067,7.25 11.8194504,7.6363042 11.8223391,8.11471576 L11.8385861,10.8055221 L11.8385861,10.8055221 Z" id="+" fill="#65656C"></path>
    </g>
</svg>