<?xml version="1.0" encoding="UTF-8"?>
<svg width="22px" height="24px" viewBox="0 0 22 24" version="1.1" xmlns="http://www.w3.org/2000/svg" xmlns:xlink="http://www.w3.org/1999/xlink">
    <!-- Generator: Sketch 59.1 (86144) - https://sketch.com -->
    <title>icons/icoFileRemoveGrey</title>
    <desc>Created with Sketch.</desc>
    <g id="icons/icoFileRemoveGrey" stroke="none" stroke-width="1" fill="none" fill-rule="evenodd">
        <g id="Group-2" transform="translate(5.000000, 4.000000)" fill-rule="nonzero">
            <path d="M12.3017241,2.53965781 L9.91848572,0.25 L0.445217391,0.25 C0.337401803,0.25 0.25,0.337401803 0.25,0.445217391 L0.25,15.5547826 C0.25,15.6625982 0.337401803,15.75 0.445217391,15.75 L12.1065067,15.75 C12.2143223,15.75 12.3017241,15.6625982 12.3017241,15.5547826 L12.3017241,2.53965781 Z" id="Rectangle" stroke="#65656C" stroke-width="0.5" fill="#E1DDDD"></path>
            <polygon id="Path-4" fill="#65656C" points="9.81756592 0 9.81756592 2.6572876 12.4176331 2.6572876"></polygon>
        </g>
        <path d="M11.9909889,11.0939844 L15.2335995,11.1408358 C15.693294,11.1474777 16.0643404,11.5185241 16.0709824,11.9782186 C16.0773817,12.4211191 15.7235276,12.7853486 15.280627,12.7917479 C15.2729028,12.7918596 15.2651773,12.7918596 15.257453,12.791748 L12.0148424,12.7448966 L12.0148424,12.7448966 L12.0640791,16.1525895 C12.0713032,16.6525747 11.6718414,17.0637492 11.1718561,17.0709733 C11.1631363,17.0710993 11.1544151,17.0710993 11.1456953,17.0709733 C10.6267515,17.0634753 10.2078815,16.6446053 10.2003835,16.1256616 L10.1511468,12.7179688 L10.1511468,12.7179688 L6.90853612,12.6711174 C6.44884165,12.6644755 6.07779524,12.2934291 6.07115326,11.8337346 C6.06475392,11.3908341 6.41860806,11.0266046 6.86150859,11.0202052 C6.86923286,11.0200936 6.87695833,11.0200936 6.88468259,11.0202052 L10.1272932,11.0670566 L10.1272932,11.0670566 L10.0828272,7.98954617 C10.0756031,7.4895609 10.4750649,7.07838644 10.9750502,7.0711623 C10.98377,7.07103631 10.9924912,7.07103631 11.0012111,7.0711623 C11.5201548,7.07866034 11.9390248,7.49753029 11.9465228,8.01647404 L11.9909889,11.0939844 L11.9909889,11.0939844 Z" id="+" fill="#65656C" transform="translate(11.071068, 12.071068) rotate(45.000000) translate(-11.071068, -12.071068) "></path>
    </g>
</svg>