<?xml version="1.0" encoding="UTF-8"?>
<svg width="24px" height="24px" viewBox="0 0 24 24" version="1.1" xmlns="http://www.w3.org/2000/svg" xmlns:xlink="http://www.w3.org/1999/xlink">
    <!-- Generator: Sketch 59.1 (86144) - https://sketch.com -->
    <title>icons/ico_cloud_download</title>
    <desc>Created with Sketch.</desc>
    <g id="icons/ico_cloud_download" stroke="none" stroke-width="1" fill="none" fill-rule="evenodd">
        <g id="cloud_download-24px" transform="translate(-1.000000, -1.000000)">
            <polygon id="Path" points="0 0 26.4 0 26.4 26.4 0 26.4"></polygon>
            <path d="M20.5459693,12.3013453 L19.7940826,12.2516577 L19.6417035,11.513699 C19.043664,8.61744463 16.362964,6.49 13.2,6.49 C10.7156489,6.49 8.48274496,7.81165932 7.36363405,9.86268442 L7.11369349,10.3207573 L6.59453511,10.3734414 C4.03541031,10.6331412 2.09,12.6881375 2.09,15.125 C2.09,17.7535462 4.34914203,19.91 7.15,19.91 L20.2583333,19.91 C22.504608,19.91 24.31,18.1866712 24.31,16.0875 C24.31,14.095677 22.6752325,12.4420554 20.5459693,12.3013453 Z" id="Shape" stroke="#3E4144" stroke-width="1.98" fill-rule="nonzero"></path>
            <polygon id="Path" fill="#3E4144" fill-rule="nonzero" points="17.05 12.7111111 13.2 17.6 9.35 12.7111111 11.66 12.7111111 11.66 8.8 14.74 8.8 14.74 12.7111111"></polygon>
        </g>
    </g>
</svg>