<?xml version="1.0" encoding="UTF-8"?>
<svg width="24px" height="24px" viewBox="0 0 24 24" version="1.1" xmlns="http://www.w3.org/2000/svg" xmlns:xlink="http://www.w3.org/1999/xlink">
    <!-- Generator: Sketch 59.1 (86144) - https://sketch.com -->
    <title>icons/icoFileAddGrey</title>
    <desc>Created with Sketch.</desc>
    <g id="icons/icoFileAddGrey" stroke="none" stroke-width="1" fill="none" fill-rule="evenodd">
        <g id="Group" transform="translate(6.000000, 4.000000)">
            <g id="Group-2" fill-rule="nonzero">
                <path d="M12.3017241,2.53965781 L9.91848572,0.25 L0.445217391,0.25 C0.337401803,0.25 0.25,0.337401803 0.25,0.445217391 L0.25,15.5547826 C0.25,15.6625982 0.337401803,15.75 0.445217391,15.75 L12.1065067,15.75 C12.2143223,15.75 12.3017241,15.6625982 12.3017241,15.5547826 L12.3017241,2.53965781 Z" id="Rectangle" stroke="#65656C" stroke-width="0.5" fill="#E1DDDD"></path>
                <polygon id="Path-4" fill="#65656C" points="9.81756592 0 9.81756592 2.6572876 12.4176331 2.6572876"></polygon>
            </g>
            <path d="M6.83858612,6.80552213 L9.74627852,6.80552213 C10.1565767,6.80552213 10.489189,7.13813449 10.489189,7.54843262 C10.489189,7.9554497 10.1592365,8.28540224 9.75221939,8.28540224 C9.75024706,8.28540224 9.74827473,8.28539432 9.74630247,8.28537849 L6.83858612,8.2620325 L6.83858612,8.2620325 L6.83858612,11.3865669 C6.83858612,11.8700732 6.44662682,12.2620325 5.96312051,12.2620325 C5.47961421,12.2620325 5.08765491,11.8700732 5.08765491,11.3865669 L5.08765491,8.2620325 L5.08765491,8.2620325 L2.2428857,8.28527384 C1.83593953,8.28859853 1.50334928,7.96139867 1.50002459,7.5544525 C1.5000082,7.55244592 1.5,7.55043927 1.5,7.54843262 C1.5,7.13813449 1.83261236,6.80552213 2.24291049,6.80552213 L5.08765491,6.80552213 L5.08765491,6.80552213 L5.08765491,4.11473152 C5.08765491,3.63715349 5.47480839,3.25 5.95238643,3.25 C6.43080671,3.25 6.81945044,3.6363042 6.82233908,4.11471576 L6.83858612,6.80552213 L6.83858612,6.80552213 Z" id="+" fill="#65656C"></path>
        </g>
    </g>
</svg>