<?xml version="1.0" encoding="UTF-8"?>
<svg width="24px" height="24px" viewBox="0 0 24 24" version="1.1" xmlns="http://www.w3.org/2000/svg" xmlns:xlink="http://www.w3.org/1999/xlink">
    <!-- Generator: Sketch 59.1 (86144) - https://sketch.com -->
    <title>icons/IcoPlaceholdeApp</title>
    <desc>Created with Sketch.</desc>
    <g id="icons/IcoPlaceholdeApp" stroke="none" stroke-width="1" fill="none" fill-rule="evenodd">
        <path d="M10,20 L14,20 L14,16 L10,16 L10,20 L10,20 Z M4,14 L8,14 L8,10 L4,10 L4,14 L4,14 Z M10,14 L14,14 L14,10 L10,10 L10,14 L10,14 Z M10,8 L14,8 L14,4 L10,4 L10,8 L10,8 Z M16,14 L20,14 L20,10 L16,10 L16,14 L16,14 Z" id="ico-app" fill="#3E4144"></path>
    </g>
</svg>